# xmcd CD database file
#
# Track frame offsets:
#	150
#	5320
#	16974
#	28259
#	37394
#	48360
#	57159
#	66703
#	73040
#	83715
#	91951
#	100464
#	115625
#	124795
#	134519
#	146123
#
# Disc length: 2061 seconds
#
# Revision: 1
# Processed by: cddbd v1.5.2PL0 Copyright (c) Steve Scherf et al.
# Submitted via: CDex 1.70
#
DISCID=ea080b10
DTITLE=Diverse - Christmas-Hits
DYEAR=2007
DGENRE=Jazz
TTITLE0=Nat King Cole - Deck The Halls
TTITLE1=Frank Sinatra - Santa Claus Is Coming To Town
TTITLE2=Dean Martin - White Christmas
TTITLE3=Nat King Cole - Caroling, Caroling
TTITLE4=Ella Fitzgerald and Bing Crosby - Rudolph The Red Nose Reindeer
TTITLE5=Dean Martin - Let It Snow! Let It Snow!
TTITLE6=Brenda Lee - Rockin' Around The Christmas Tree
TTITLE7=Nat King Cole - Joy The World
TTITLE8=Frank Sinatra - Hark! The Herald Angels Sing
TTITLE9=Ella Fitzgerald - The First Noel
TTITLE10=Dean Martin - Winter Wonderland
TTITLE11=Bing Crosby - The Twelve Days Of Christmas
TTITLE12=Frank Sinatra - Jingle Bells
TTITLE13=Nat King Cole - Silent Night
TTITLE14=Frank Sinatra - Adeste Fidelis
TTITLE15=Bing Crosby - We Wish You A Merry Christmas
EXTD=YEAR: 2007
EXTT0=
EXTT1=
EXTT2=
EXTT3=
EXTT4=
EXTT5=
EXTT6=
EXTT7=
EXTT8=
EXTT9=
EXTT10=
EXTT11=
EXTT12=
EXTT13=
EXTT14=
EXTT15=
PLAYORDER=
